HIERARCHY
ROOT root
{
	OFFSET 0.000000 0.000000 0.000000
	CHANNELS 6 Xposition Yposition Zposition Zrotation Yrotation Xrotation
	JOINT lhip
	{
		OFFSET 0.058581 -0.082280 -0.017664
		CHANNELS 3 Zrotation Yrotation Xrotation
		JOINT lknee
		{
			OFFSET 0.043451 -0.386469 0.008037
			CHANNELS 3 Zrotation Yrotation Xrotation
			JOINT lankle
			{
				OFFSET -0.014790 -0.426874 -0.037428
				CHANNELS 3 Zrotation Yrotation Xrotation
				JOINT ltoe
				{
					OFFSET 0.041054 -0.060286 0.122042
					CHANNELS 3 Zrotation Yrotation Xrotation
					End Site
					{
						OFFSET 0.000000 0.000000 0.000000
					}
				}
			}
		}
	}
	JOINT rhip
	{
		OFFSET -0.060310 -0.090513 -0.013543
		CHANNELS 3 Zrotation Yrotation Xrotation
		JOINT rknee
		{
			OFFSET -0.043257 -0.383688 -0.004843
			CHANNELS 3 Zrotation Yrotation Xrotation
			JOINT rankle
			{
				OFFSET 0.019056 -0.420046 -0.034562
				CHANNELS 3 Zrotation Yrotation Xrotation
				JOINT rtoe
				{
					OFFSET -0.034840 -0.062106 0.130323
					CHANNELS 3 Zrotation Yrotation Xrotation
					End Site
					{
						OFFSET 0.000000 0.000000 0.000000
					}
				}
			}
		}
	}
	JOINT lowerback
	{
		OFFSET 0.004439 0.124404 -0.038385
		CHANNELS 3 Zrotation Yrotation Xrotation
		JOINT upperback
		{
			OFFSET 0.004488 0.137956 0.026820
			CHANNELS 3 Zrotation Yrotation Xrotation
			JOINT chest
			{
				OFFSET -0.002265 0.056032 0.002855
				CHANNELS 3 Zrotation Yrotation Xrotation
				JOINT lowerneck
				{
					OFFSET -0.013390 0.211636 -0.033468
					CHANNELS 3 Zrotation Yrotation Xrotation
					JOINT upperneck
					{
						OFFSET 0.010113 0.088937 0.050410
						CHANNELS 3 Zrotation Yrotation Xrotation
						End Site
						{
							OFFSET 0.000000 0.000000 0.000000
						}
					}
				}
				JOINT lclavicle
				{
					OFFSET 0.071702 0.114000 -0.018898
					CHANNELS 3 Zrotation Yrotation Xrotation
					JOINT lshoulder
					{
						OFFSET 0.122921 0.045205 -0.019046
						CHANNELS 3 Zrotation Yrotation Xrotation
						JOINT lelbow
						{
							OFFSET 0.255332 -0.015649 -0.022946
							CHANNELS 3 Zrotation Yrotation Xrotation
							JOINT lwrist
							{
								OFFSET 0.265709 0.012698 -0.007375
								CHANNELS 3 Zrotation Yrotation Xrotation
								End Site
								{
									OFFSET 0.000000 0.000000 0.000000
								}
							}
						}
					}
				}
				JOINT rclavicle
				{
					OFFSET -0.082954 0.112472 -0.023707
					CHANNELS 3 Zrotation Yrotation Xrotation
					JOINT rshoulder
					{
						OFFSET -0.113228 0.046853 -0.008472
						CHANNELS 3 Zrotation Yrotation Xrotation
						JOINT relbow
						{
							OFFSET -0.260127 -0.014369 -0.031269
							CHANNELS 3 Zrotation Yrotation Xrotation
							JOINT rwrist
							{
								OFFSET -0.269108 0.006794 -0.006027
								CHANNELS 3 Zrotation Yrotation Xrotation
								End Site
								{
									OFFSET 0.000000 0.000000 0.000000
								}
							}
						}
					}
				}
			}
		}
	}
}
MOTION
Frames: 11
Frame Time: 0.033333
0.031021 0.077332 0.665141 -57.228224 21.803448 127.649769 20.384746 21.678223 -71.581160 -8.914493 22.221809 115.701079 -1.176628 -0.379769 -35.140532 0.000000 -0.000000 0.000000 -12.630644 -25.275899 -61.751709 4.057662 -21.878309 96.858819 10.875802 5.625652 -16.809147 0.000000 -0.000000 0.000000 0.890835 5.045145 71.891613 1.465891 -4.223363 -8.827674 3.086689 1.200436 -0.877688 6.017232 5.905174 0.698067 19.720170 -5.650996 -11.062559 1.298102 -32.556216 -6.908099 6.689358 -4.076663 -17.781704 10.492720 -14.486194 -24.257290 52.555459 -3.895006 -7.950716 1.450323 43.779379 -8.836328 40.046017 51.513538 1.968474 -21.032956 32.780856 -22.458523 -21.012736 5.155110 -22.443405 
0.034468 0.099978 0.657042 -55.735470 19.761617 127.725024 20.329682 21.457679 -73.474670 -10.238523 22.136571 116.225305 -1.400102 -1.467204 -36.735603 0.000000 -0.000000 0.000000 -13.543443 -25.917915 -63.473851 4.033230 -21.533462 100.721677 10.392222 6.172658 -18.042861 0.000000 -0.000000 0.000000 0.965183 4.441464 70.847709 2.615432 -4.967171 -9.644358 3.263837 0.473494 -0.140666 6.799320 6.558154 0.749334 19.214483 -6.976052 -11.287905 2.470663 -33.099722 -5.631362 6.428923 -3.009485 -18.400016 9.701532 -12.036557 -21.707060 50.016440 -4.746653 -6.713774 0.431759 43.455923 -9.536080 43.305931 52.638500 3.927302 -20.870123 31.935027 -20.627394 -20.829592 4.779700 -23.430384 
0.038930 0.124364 0.647165 -54.580154 18.230135 127.660954 21.222087 21.793552 -75.237704 -10.729702 21.983084 117.354237 -3.598480 -1.392432 -37.314839 0.000000 -0.000000 0.000000 -14.207477 -25.588560 -65.770076 3.748646 -21.215963 104.927078 9.395239 6.511688 -19.648598 0.000000 -0.000000 0.000000 0.532633 3.908388 69.421222 3.619570 -5.366334 -9.597290 3.446138 0.300639 -0.990559 7.430998 5.783383 3.303196 18.514021 -8.051957 -11.719477 3.405866 -33.670113 -3.406782 5.510499 -1.532430 -18.939411 9.164131 -10.836619 -18.154271 44.207457 -4.695558 -7.245477 -0.062524 43.676822 -8.526943 45.854615 53.401852 4.303172 -20.819479 31.893717 -18.539221 -20.321401 4.165184 -24.853023 
0.043558 0.147266 0.636245 -53.825555 16.756020 127.159344 21.919644 22.475180 -76.925214 -10.672552 22.072128 118.702733 -3.171850 -0.241599 -38.093724 0.000000 -0.000000 0.000000 -14.918457 -25.445761 -67.900436 3.880878 -20.948695 108.839402 7.706391 6.236971 -21.018128 0.000000 -0.000000 0.000000 0.121951 3.568258 68.062853 4.285283 -5.428246 -9.601539 3.347782 0.157012 -0.682280 7.729945 6.840757 2.367627 18.503708 -9.480737 -11.864761 5.098902 -34.022698 -3.018135 4.886864 -1.073312 -19.253716 8.381004 -10.048324 -13.306546 36.712583 -4.311331 -9.129076 -0.591793 43.594918 -8.157849 47.693923 54.254277 4.909418 -21.455162 31.403492 -16.750515 -20.197487 3.833685 -26.067081 
0.048916 0.168634 0.624277 -53.150335 15.140296 126.662790 21.896663 23.296912 -79.142172 -9.942464 22.485602 120.295299 -1.414131 2.203345 -39.623029 0.000000 -0.000000 0.000000 -15.658377 -25.724646 -70.146191 4.417074 -20.407217 112.641168 7.045984 7.057522 -21.499499 0.000000 -0.000000 0.000000 0.037363 3.174617 66.655908 4.764754 -5.359475 -10.160918 3.415740 -0.358832 -0.222561 7.254243 5.784645 3.270825 18.725134 -9.639916 -12.425170 5.912900 -34.832707 -2.208903 4.875486 -0.305537 -20.476341 8.090085 -9.624753 -11.308864 33.521485 -4.542789 -8.464541 -1.789959 43.629997 -8.425027 49.647478 54.435712 5.017794 -21.507482 31.096759 -15.581330 -20.490308 3.712866 -26.454393 
0.054402 0.188665 0.612950 -52.616728 13.604139 125.594934 22.006626 24.050083 -80.541533 -9.622546 23.251063 121.774484 -1.594324 1.576464 -38.706081 0.000000 -0.000000 0.000000 -16.460460 -26.352926 -71.735642 4.246711 -19.946415 116.485951 6.335656 7.631179 -22.413377 0.000000 -0.000000 0.000000 -0.071912 2.846078 65.641236 5.243245 -5.570783 -10.104678 3.303612 -0.503997 -0.017077 7.212043 5.694299 3.339297 18.595470 -10.757924 -12.596752 6.900219 -35.343186 -1.778393 4.890629 0.339828 -20.635517 7.747809 -10.983405 -9.509407 28.212911 -4.645604 -10.542207 -2.470463 43.943558 -7.814982 49.752944 55.240883 4.231119 -21.816983 30.781370 -15.372192 -20.570248 3.031990 -27.218180 
0.060612 0.207220 0.601447 -52.047127 12.115940 124.459660 21.927596 24.371148 -81.924290 -10.110453 23.663641 122.976968 -1.576883 0.638479 -39.090488 0.000000 -0.000000 0.000000 -17.071880 -27.316298 -73.344130 3.818726 -19.740383 120.264506 5.550753 7.572792 -23.333389 0.000000 -0.000000 0.000000 0.110350 2.420848 64.732948 5.614814 -5.757821 -10.330267 3.231818 -0.639795 0.362735 6.877448 5.173959 3.517619 18.755235 -11.394056 -12.949968 7.627636 -36.152748 -1.400947 4.629325 0.350669 -20.550576 7.774071 -12.947317 -9.392911 27.890297 -3.917708 -12.898773 -3.254809 44.315148 -7.757589 49.842572 55.482206 3.708355 -21.944379 30.594595 -15.591218 -21.174418 2.538614 -27.974522 
0.067228 0.223509 0.591847 -51.704317 10.623227 122.848141 22.096273 24.210510 -82.496264 -10.233696 24.186112 123.810962 -1.021227 0.597597 -39.548369 0.000000 -0.000000 0.000000 -17.747244 -28.345943 -74.496660 3.312500 -19.475769 123.616430 5.012703 6.860381 -23.952365 0.000000 -0.000000 0.000000 0.356936 1.779803 64.741697 5.746113 -5.982423 -10.826675 3.099104 -0.589376 0.512882 6.194148 3.926299 3.317922 19.080558 -12.008983 -12.754959 8.703416 -36.848689 -1.655994 3.403357 -0.472834 -20.559934 8.082572 -15.489292 -9.250326 29.412841 -3.283156 -13.580916 -4.405140 45.027037 -7.728394 49.328075 56.041352 2.423206 -22.086466 29.494881 -16.335514 -22.493030 1.841092 -27.225346 
0.073852 0.238809 0.583369 -51.731547 9.564793 121.072964 22.220590 24.489322 -83.050524 -10.094161 24.513044 124.893363 -0.620797 0.504841 -39.568411 0.000000 -0.000000 0.000000 -18.200446 -29.155155 -75.465593 2.800910 -19.159314 126.510280 4.397394 6.263481 -24.352007 0.000000 -0.000000 0.000000 0.656792 1.445491 64.853064 5.644824 -5.535309 -11.274615 2.996464 -0.447329 0.747567 4.973023 2.679052 2.566173 18.698576 -12.847622 -12.301414 9.372438 -37.383008 -2.479744 1.775503 -2.294864 -19.891752 8.984984 -19.794553 -8.313495 31.325085 -2.694133 -13.452182 -5.428222 45.631904 -7.809928 47.900890 56.093473 0.561104 -22.361218 28.624400 -17.484181 -23.501935 0.803879 -26.461302 
0.082039 0.253141 0.575003 -52.144484 8.155051 119.300994 21.894075 24.355992 -83.722273 -9.669607 24.984687 126.035535 -0.209694 0.464449 -39.356485 0.000000 -0.000000 0.000000 -19.139453 -29.967288 -76.694202 2.500433 -18.517182 129.099818 3.737229 5.848857 -25.064807 0.000000 -0.000000 0.000000 0.815017 0.952539 64.666439 5.259802 -5.408375 -11.175152 2.571181 -0.024653 0.601047 3.968138 1.016942 1.856094 18.851952 -13.622810 -11.928981 9.470044 -37.550750 -3.342850 0.799668 -4.474139 -19.033608 8.593567 -25.525284 -6.003925 33.628020 -1.850735 -13.541798 -5.633498 46.476715 -7.286824 45.593326 56.730226 -2.153264 -22.353904 26.794278 -18.460660 -25.092389 0.628822 -25.540827 
0.091300 0.267059 0.566464 -52.502707 7.120977 118.033513 21.613219 24.285554 -84.951380 -8.707243 25.267738 127.231509 0.342675 0.745402 -39.079043 0.000000 -0.000000 0.000000 -19.578408 -30.771103 -78.286218 2.461881 -18.329860 131.245649 3.497453 6.857530 -25.882147 0.000000 -0.000000 0.000000 1.422683 0.864563 64.045430 5.034394 -4.424302 -11.442707 2.471783 0.074178 0.580154 2.922640 -0.552880 1.318627 18.759102 -14.808479 -11.957568 9.352114 -38.118824 -3.884197 -0.939369 -7.292514 -17.619995 8.084106 -31.831803 -2.213565 33.488448 -1.790975 -14.617434 -6.113930 46.721611 -6.789176 43.465360 56.577698 -4.748787 -22.359821 25.495819 -19.156865 -26.160089 0.183899 -25.500346 
